<?xml version="1.0" standalone="no"?>
<!DOCTYPE svg PUBLIC "-//W3C//DTD SVG 20010904//EN"
 "http://www.w3.org/TR/2001/REC-SVG-20010904/DTD/svg10.dtd">
<svg version="1.0" xmlns="http://www.w3.org/2000/svg"
 width="1024.000000pt" height="1024.000000pt" viewBox="0 0 1024.000000 1024.000000"
 preserveAspectRatio="xMidYMid meet">
<metadata>
Created by potrace 1.11, written by Peter Selinger 2001-2013
</metadata>
<g transform="translate(0.000000,1024.000000) scale(0.100000,-0.100000)"
fill="#000000" stroke="none">
<path d="M4249 9396 c-35 -18 -454 -431 -480 -473 -11 -18 -25 -51 -32 -74
-12 -39 -16 -43 -82 -69 -115 -44 -464 -210 -495 -235 -8 -7 -35 -23 -60 -37
-95 -50 -256 -158 -398 -267 -139 -105 -143 -107 -217 -115 -130 -13 -273
-118 -325 -238 -25 -56 -26 -56 -67 -56 -146 0 -272 -121 -275 -263 -1 -57 16
-134 32 -144 20 -12 8 -36 -79 -167 -267 -400 -469 -855 -573 -1288 -11 -47
-22 -94 -25 -105 -4 -19 -14 -69 -28 -140 -19 -102 -25 -135 -30 -180 -3 -27
-8 -68 -10 -90 -3 -22 -7 -56 -10 -75 -28 -219 -23 -629 11 -895 16 -130 22
-169 39 -265 29 -159 101 -431 156 -585 32 -91 89 -237 105 -267 17 -32 36
-29 -173 -30 -74 0 -128 -5 -137 -12 -25 -20 -28 -51 -6 -71 18 -16 39 -19
168 -19 l147 -1 28 -55 c250 -483 470 -792 802 -1126 213 -213 403 -370 635
-524 69 -45 137 -91 152 -101 15 -11 29 -19 32 -19 3 0 29 -14 58 -32 255
-152 660 -319 988 -407 109 -29 368 -83 455 -95 22 -3 56 -8 75 -11 138 -22
353 -33 590 -30 146 2 283 6 305 9 22 2 69 8 105 11 36 4 72 8 80 10 8 2 35 6
60 9 25 3 54 8 65 10 24 4 113 17 120 17 2 0 19 5 37 10 18 5 47 12 63 15 76
13 314 79 450 126 1018 345 1864 1077 2357 2038 l74 145 98 0 c89 0 100 3 116
23 20 25 16 58 -9 71 -9 4 -58 8 -110 9 -51 1 -95 3 -97 5 -2 2 14 48 36 103
96 234 205 614 235 819 4 22 9 54 11 70 62 375 65 863 9 1225 -14 86 -25 158
-29 175 -29 145 -41 197 -67 294 -51 190 -141 446 -209 596 -35 78 -151 311
-176 355 -123 214 -316 494 -439 635 -140 160 -294 318 -405 415 -35 30 -68
60 -74 65 -6 6 -32 27 -57 48 -36 29 -49 48 -58 82 -10 40 -38 72 -244 279
-260 262 -277 273 -385 263 -63 -5 -88 -16 -140 -60 -23 -19 -38 -25 -45 -18
-23 18 -274 119 -422 169 -154 52 -293 91 -425 118 -108 23 -112 24 -145 29
-16 3 -55 10 -85 15 -85 15 -153 23 -305 38 -105 9 -598 9 -698 -1 l-79 -8
-167 167 c-93 92 -179 173 -192 180 -31 17 -97 17 -130 0z m192 -193 c60 -60
109 -111 109 -115 0 -4 -15 -22 -33 -41 -28 -28 -47 -36 -108 -46 -41 -8 -115
-24 -166 -36 l-92 -22 -55 56 -56 57 128 127 c71 70 137 127 147 127 10 0 67
-48 126 -107z m2955 -774 l29 -31 -37 22 c-21 12 -38 26 -38 31 0 17 16 9 46
-22z"/>
<path d="M631 3326 c-22 -28 -21 -54 2 -73 22 -17 41 -19 172 -17 155 1 165 4
165 50 0 46 -24 53 -183 52 -92 -1 -151 -6 -156 -12z"/>
<path d="M9292 3331 c-6 -4 -15 -18 -21 -33 -8 -21 -6 -29 10 -44 17 -15 40
-18 165 -19 80 0 149 2 153 5 33 21 29 83 -6 94 -25 7 -289 5 -301 -3z"/>
</g>
</svg>
